<?xml version="1.0" encoding="UTF-8"?>
<svg version="1.1" xmlns="http://www.w3.org/2000/svg" width="501" height="498">
<path d="M0 0 C7.88865903 3.31591091 12.82670965 7.55990622 16.6171875 15.28125 C19.35584057 24.40971617 18.89761316 37.1786991 15.05859375 45.88671875 C9.7656695 54.67957124 2.35639697 59.43323052 -7.3828125 62.28125 C-13.51130001 63.40831986 -19.51491501 63.41606703 -25.73413086 63.39477539 C-26.85681366 63.39492142 -27.97949646 63.39506744 -29.13619995 63.3952179 C-32.83170532 63.39452354 -36.52715973 63.38675347 -40.22265625 63.37890625 C-42.79097974 63.37704038 -45.35930359 63.37561727 -47.92762756 63.37461853 C-53.98707603 63.3711959 -60.0465036 63.36332154 -66.10594422 63.35326904 C-73.00802832 63.34206862 -79.91011331 63.33658757 -86.81220424 63.33157361 C-101.00241673 63.32113781 -115.19261397 63.30356291 -129.3828125 63.28125 C-132.35705403 57.33276694 -129.74001047 47.47194592 -127.7578125 41.40625 C-124.08861394 32.52705064 -118.88352449 27.93975513 -110.12890625 24.19140625 C-104.63131419 22.36930248 -99.21739719 22.13190944 -93.46899414 22.12353516 C-92.31411751 22.11591408 -92.31411751 22.11591408 -91.13591003 22.10813904 C-89.47285642 22.09748362 -87.80978891 22.08884474 -86.14671516 22.08201981 C-83.51045022 22.07016629 -80.87434438 22.0506986 -78.23814392 22.02890015 C-70.74581212 21.96749063 -63.25349992 21.9132416 -55.76098633 21.87988281 C-51.16979636 21.85889652 -46.5789028 21.82356797 -41.98788261 21.77912521 C-40.24369234 21.76500379 -38.4994497 21.75625152 -36.75520515 21.75307083 C-34.31183097 21.74814207 -31.86923949 21.72493634 -29.42602539 21.69775391 C-28.35582657 21.70226311 -28.35582657 21.70226311 -27.26400757 21.7068634 C-22.20754482 21.6236523 -18.80529542 20.56265753 -14.3828125 18.28125 C-12.274755 15.97556211 -11.37281428 14.51353036 -11.3984375 11.35546875 C-11.63061075 9.30073545 -11.9703084 7.30701272 -12.3828125 5.28125 C-12.5684375 4.29125 -12.7540625 3.30125 -12.9453125 2.28125 C-13.161875 1.29125 -13.161875 1.29125 -13.3828125 0.28125 C-9.26087439 -1.77971905 -4.32357079 -1.30415906 0 0 Z " fill="#020307" transform="translate(331.3828125,271.71875)"/>
<path d="M0 0 C5.54638701 3.04374897 9.79389513 8.36757515 12.2421875 14.16796875 C14.81050801 23.7026488 14.91819175 36.28181193 10.484375 45.1953125 C10.07445312 45.86691406 9.66453125 46.53851563 9.2421875 47.23046875 C8.85289062 47.87113281 8.46359375 48.51179688 8.0625 49.171875 C2.90309428 56.23934497 -5.48823711 59.77350893 -13.87963867 61.29492188 C-24.99854802 62.93220569 -36.28144721 62.49644746 -47.4921875 62.4609375 C-49.98227922 62.45974387 -52.47237139 62.45929292 -54.96246338 62.45954895 C-60.1533901 62.45799229 -65.34424706 62.44975981 -70.53515625 62.4362793 C-77.20356242 62.41918397 -83.87185927 62.41546841 -90.54027939 62.41622448 C-95.66844409 62.41595346 -100.79659211 62.41048501 -105.92475128 62.40322304 C-108.38566207 62.4000336 -110.84657475 62.39806832 -113.30748749 62.39732933 C-116.72813698 62.39517469 -120.14870401 62.38645274 -123.56933594 62.37573242 C-125.10423172 62.3764122 -125.10423172 62.3764122 -126.6701355 62.37710571 C-127.59510834 62.37284073 -128.52008118 62.36857574 -129.4730835 62.36418152 C-130.28120358 62.36250567 -131.08932365 62.36082983 -131.92193222 62.3591032 C-133.7578125 62.23046875 -133.7578125 62.23046875 -134.7578125 61.23046875 C-135.60417904 50.43929541 -133.29802674 39.7954654 -126.57421875 31.21875 C-119.76372601 23.76382354 -110.45666764 21.92581318 -100.7578125 21.23046875 C-95.74831784 21.08962236 -90.74080478 21.05278828 -85.7295475 21.03123856 C-83.2025315 21.01932589 -80.6756771 20.99984795 -78.14872742 20.9781189 C-70.97054414 20.91688092 -63.79238587 20.86237793 -56.61401367 20.82910156 C-52.20739455 20.8081346 -47.80108546 20.77283233 -43.39464378 20.72834396 C-41.7221968 20.71421927 -40.04969515 20.70546952 -38.37719154 20.70228958 C-36.03929806 20.69736915 -33.70222751 20.67418855 -31.36450195 20.64697266 C-30.68020615 20.64997879 -29.99591034 20.65298492 -29.2908783 20.65608215 C-24.74786859 20.57772251 -21.62256379 19.60567837 -17.7578125 17.23046875 C-14.8117701 12.87544956 -15.88704323 8.14723666 -16.7578125 3.23046875 C-17.07655781 1.89357297 -17.40537672 0.55888055 -17.7578125 -0.76953125 C-11.80076886 -2.75521246 -5.82783236 -2.14762681 0 0 Z " fill="#020307" transform="translate(335.7578125,206.76953125)"/>
<path d="M0 0 C1.15092133 -0.00204437 2.30184265 -0.00408875 3.48764038 -0.00619507 C7.25413415 -0.00917941 11.02018011 0.0091953 14.78662109 0.02832031 C17.41409192 0.03138056 20.04156436 0.03325466 22.66903687 0.03399658 C28.15441572 0.03767178 33.6396681 0.05256118 39.125 0.07519531 C46.1723467 0.10421503 53.2195926 0.11443481 60.26699257 0.11887741 C65.68168288 0.12242266 71.09635052 0.13282801 76.51102829 0.1447525 C79.11149278 0.15046453 81.71195954 0.15522013 84.31242752 0.15901947 C87.9296804 0.16585254 91.54683932 0.17946708 95.1640625 0.1953125 C96.24657288 0.19643036 97.32908325 0.19754822 98.44439697 0.19869995 C99.9119191 0.20726517 99.9119191 0.20726517 101.40908813 0.21600342 C102.6915338 0.22046541 102.6915338 0.22046541 103.99988747 0.22501755 C105.93505859 0.35644531 105.93505859 0.35644531 106.93505859 1.35644531 C108.00130766 12.78803367 105.92393847 22.67454293 98.55224609 31.64160156 C90.35088747 40.33821131 78.90225939 42.08855038 67.36225891 42.43330765 C64.51792837 42.44621639 61.67571758 42.4265693 58.83154297 42.39404297 C57.75894226 42.38604172 56.68634155 42.37804047 55.58123779 42.36979675 C52.06369226 42.34209025 48.54627775 42.3065585 45.02880859 42.27050781 C42.57784308 42.2487244 40.12687456 42.22727548 37.67590332 42.20614624 C32.55521765 42.16077625 27.43458748 42.11155827 22.31396484 42.05957031 C15.7352066 41.99306352 9.15640602 41.93590476 2.57753754 41.8815403 C-2.47517498 41.83882406 -7.52783429 41.79137336 -12.58049011 41.74244308 C-15.00789579 41.71948367 -17.4353157 41.69798181 -19.86274719 41.67793655 C-23.24076028 41.64930286 -26.61864846 41.61435199 -29.99658203 41.57763672 C-31.00742859 41.57031021 -32.01827515 41.5629837 -33.05975342 41.55543518 C-33.97367859 41.5442012 -34.88760376 41.53296722 -35.82922363 41.52139282 C-37.02707363 41.50976577 -37.02707363 41.50976577 -38.24912262 41.49790382 C-40.06494141 41.35644531 -40.06494141 41.35644531 -41.06494141 40.35644531 C-41.15128724 27.93991458 -38.5999154 17.59235919 -30.06494141 8.35644531 C-21.94698962 0.52404962 -10.72239725 -0.09301283 0 0 Z " fill="#030307" transform="translate(242.06494140625,161.6435546875)"/>
<path d="M0 0 C5.34997633 3.18594096 9.20317287 7.28344852 11.6484375 13.0546875 C12.59494698 20.14250266 11.88155986 26.19771164 7.6484375 32.0546875 C3.43564232 36.38450477 -1.82570457 38.91299924 -7.87890625 39.15625 C-15.08025268 38.70142812 -19.09064379 36.41837524 -24.1015625 31.1796875 C-27.8747179 25.93919389 -28.90528637 21.47788439 -28.3515625 15.0546875 C-27.12892269 9.33051021 -24.76800124 5.96127441 -20.265625 2.28125 C-14.22277914 -1.59110429 -6.76145241 -2.71805894 0 0 Z " fill="#020306" transform="translate(179.3515625,301.9453125)"/>
<path d="M0 0 C4.02272557 2.86333742 6.90959087 6.71017886 8.7890625 11.2734375 C9.73002755 18.20686422 9.42857692 23.93506862 5.21484375 29.65625 C1.34757296 34.04268865 -2.63799776 36.93173018 -8.5390625 37.49609375 C-15.44630639 37.73391802 -19.62204104 36.56129948 -24.8984375 31.8984375 C-29.53829237 26.63157522 -31.35967802 22.29856672 -31.2109375 15.2734375 C-30.2639501 8.61110264 -27.42288168 4.75619138 -22.18359375 0.6484375 C-15.1940223 -4.22350141 -7.36467949 -4.13713071 0 0 Z " fill="#020307" transform="translate(182.2109375,164.7265625)"/>
<path d="M0 0 C4.93578296 3.49116356 8.53356455 7.04605188 10.5625 12.8125 C11.23966349 19.02756212 11.33194691 24.58391236 7.5625 29.8125 C2.47143769 34.91585957 -1.80102721 38.08734451 -9.1875 38.25 C-16.63129514 38.12291081 -20.72676996 35.59456504 -25.8125 30.375 C-29.36284888 24.77637292 -30.40281315 19.33192068 -29.0078125 12.80078125 C-27.05576128 6.47468933 -23.09856075 3.07079642 -17.58203125 -0.33203125 C-12.15537811 -2.49676174 -5.40860481 -1.86842712 0 0 Z " fill="#020307" transform="translate(180.4375,233.1875)"/>
<path d="" fill="#FFFFFF" transform="translate(0,0)"/>
<path d="" fill="#FFFFFF" transform="translate(0,0)"/>
<path d="" fill="#FFFFFF" transform="translate(0,0)"/>
<path d="" fill="#FFFFFF" transform="translate(0,0)"/>
<path d="" fill="#FFFFFF" transform="translate(0,0)"/>
<path d="" fill="#FFFFFF" transform="translate(0,0)"/>
<path d="" fill="#FFFFFF" transform="translate(0,0)"/>
<path d="" fill="#FFFFFF" transform="translate(0,0)"/>
<path d="" fill="#FFFFFF" transform="translate(0,0)"/>
<path d="" fill="#FFFFFF" transform="translate(0,0)"/>
<path d="" fill="#FFFFFF" transform="translate(0,0)"/>
<path d="" fill="#FFFFFF" transform="translate(0,0)"/>
<path d="" fill="#FFFFFF" transform="translate(0,0)"/>
<path d="" fill="#FFFFFF" transform="translate(0,0)"/>
<path d="" fill="#FFFFFF" transform="translate(0,0)"/>
<path d="" fill="#FFFFFF" transform="translate(0,0)"/>
<path d="" fill="#FFFFFF" transform="translate(0,0)"/>
<path d="" fill="#FFFFFF" transform="translate(0,0)"/>
<path d="" fill="#FFFFFF" transform="translate(0,0)"/>
<path d="" fill="#FFFFFF" transform="translate(0,0)"/>
<path d="" fill="#FFFFFF" transform="translate(0,0)"/>
<path d="" fill="#FFFFFF" transform="translate(0,0)"/>
<path d="" fill="#FFFFFF" transform="translate(0,0)"/>
<path d="" fill="#FFFFFF" transform="translate(0,0)"/>
<path d="" fill="#FFFFFF" transform="translate(0,0)"/>
<path d="" fill="#FFFFFF" transform="translate(0,0)"/>
<path d="" fill="#FFFFFF" transform="translate(0,0)"/>
<path d="" fill="#FFFFFF" transform="translate(0,0)"/>
<path d="" fill="#FFFFFF" transform="translate(0,0)"/>
<path d="" fill="#FFFFFF" transform="translate(0,0)"/>
<path d="" fill="#FFFFFF" transform="translate(0,0)"/>
<path d="" fill="#FFFFFF" transform="translate(0,0)"/>
<path d="" fill="#FFFFFF" transform="translate(0,0)"/>
<path d="" fill="#FFFFFF" transform="translate(0,0)"/>
<path d="" fill="#FFFFFF" transform="translate(0,0)"/>
<path d="" fill="#FFFFFF" transform="translate(0,0)"/>
<path d="" fill="#FFFFFF" transform="translate(0,0)"/>
<path d="" fill="#FFFFFF" transform="translate(0,0)"/>
<path d="" fill="#FFFFFF" transform="translate(0,0)"/>
<path d="" fill="#FFFFFF" transform="translate(0,0)"/>
<path d="" fill="#FFFFFF" transform="translate(0,0)"/>
<path d="" fill="#FFFFFF" transform="translate(0,0)"/>
<path d="" fill="#FFFFFF" transform="translate(0,0)"/>
<path d="" fill="#FFFFFF" transform="translate(0,0)"/>
<path d="" fill="#FFFFFF" transform="translate(0,0)"/>
<path d="" fill="#FFFFFF" transform="translate(0,0)"/>
<path d="" fill="#FFFFFF" transform="translate(0,0)"/>
<path d="" fill="#FFFFFF" transform="translate(0,0)"/>
<path d="" fill="#FFFFFF" transform="translate(0,0)"/>
<path d="" fill="#FFFFFF" transform="translate(0,0)"/>
<path d="" fill="#FFFFFF" transform="translate(0,0)"/>
<path d="" fill="#FFFFFF" transform="translate(0,0)"/>
<path d="" fill="#FFFFFF" transform="translate(0,0)"/>
<path d="" fill="#FFFFFF" transform="translate(0,0)"/>
<path d="" fill="#FFFFFF" transform="translate(0,0)"/>
<path d="" fill="#FFFFFF" transform="translate(0,0)"/>
<path d="" fill="#FFFFFF" transform="translate(0,0)"/>
<path d="" fill="#FFFFFF" transform="translate(0,0)"/>
<path d="" fill="#FFFFFF" transform="translate(0,0)"/>
<path d="" fill="#FFFFFF" transform="translate(0,0)"/>
<path d="" fill="#FFFFFF" transform="translate(0,0)"/>
<path d="" fill="#FFFFFF" transform="translate(0,0)"/>
<path d="" fill="#FFFFFF" transform="translate(0,0)"/>
<path d="" fill="#FFFFFF" transform="translate(0,0)"/>
<path d="" fill="#FFFFFF" transform="translate(0,0)"/>
<path d="" fill="#FFFFFF" transform="translate(0,0)"/>
<path d="" fill="#FFFFFF" transform="translate(0,0)"/>
<path d="" fill="#FFFFFF" transform="translate(0,0)"/>
<path d="" fill="#FFFFFF" transform="translate(0,0)"/>
<path d="" fill="#FFFFFF" transform="translate(0,0)"/>
<path d="" fill="#FFFFFF" transform="translate(0,0)"/>
<path d="" fill="#FFFFFF" transform="translate(0,0)"/>
<path d="" fill="#FFFFFF" transform="translate(0,0)"/>
<path d="" fill="#FFFFFF" transform="translate(0,0)"/>
<path d="" fill="#FFFFFF" transform="translate(0,0)"/>
<path d="" fill="#FFFFFF" transform="translate(0,0)"/>
<path d="" fill="#FFFFFF" transform="translate(0,0)"/>
<path d="" fill="#FFFFFF" transform="translate(0,0)"/>
<path d="" fill="#FFFFFF" transform="translate(0,0)"/>
<path d="" fill="#FFFFFF" transform="translate(0,0)"/>
<path d="" fill="#FFFFFF" transform="translate(0,0)"/>
<path d="" fill="#FFFFFF" transform="translate(0,0)"/>
<path d="" fill="#FFFFFF" transform="translate(0,0)"/>
<path d="" fill="#FFFFFF" transform="translate(0,0)"/>
<path d="" fill="#FFFFFF" transform="translate(0,0)"/>
<path d="" fill="#FFFFFF" transform="translate(0,0)"/>
<path d="" fill="#FFFFFF" transform="translate(0,0)"/>
<path d="" fill="#FFFFFF" transform="translate(0,0)"/>
<path d="" fill="#FFFFFF" transform="translate(0,0)"/>
<path d="" fill="#FFFFFF" transform="translate(0,0)"/>
</svg>
