<?xml version="1.0" encoding="UTF-8"?>
<svg version="1.1" xmlns="http://www.w3.org/2000/svg" width="501" height="498">
<path d="M0 0 C6.64570214 2.23274578 12.77896336 6.04869717 16.4140625 12.1640625 C20.50677641 21.00432455 20.77769929 33.96437214 17.4140625 43.1640625 C12.98977417 52.18340117 5.95712287 58.32404014 -3.3984375 61.7890625 C-11.6631094 63.49899462 -19.93420016 63.68277859 -28.34814453 63.65258789 C-29.97430443 63.65280693 -29.97430443 63.65280693 -31.63331604 63.6530304 C-35.1826484 63.65233904 -38.73192692 63.64458329 -42.28125 63.63671875 C-44.75560477 63.63485181 -47.22995991 63.63342921 -49.70431519 63.63243103 C-56.19137609 63.62862761 -62.67841432 63.61881603 -69.16546631 63.60772705 C-75.79520378 63.59746603 -82.42494415 63.59292339 -89.0546875 63.58789062 C-102.04428046 63.57719169 -115.03385777 63.56033598 -128.0234375 63.5390625 C-128.06943574 61.3400438 -128.10192668 59.14074051 -128.12890625 56.94140625 C-128.15827271 55.10437134 -128.15827271 55.10437134 -128.18823242 53.23022461 C-127.82891131 45.18196413 -124.98069089 36.23413847 -119.0234375 30.5390625 C-108.16687704 22.19828254 -96.52741276 22.24906598 -83.36441994 22.23410225 C-80.7445635 22.23040035 -78.12507284 22.213574 -75.5052948 22.19334412 C-68.06422732 22.13827316 -60.6231095 22.107207 -53.18188477 22.08276367 C-48.61203927 22.06685614 -44.04246051 22.03661677 -39.47275352 21.99799919 C-37.7397209 21.98639143 -36.0066406 21.98041921 -34.27356911 21.98031807 C-31.84982116 21.98012516 -29.42680721 21.9618009 -27.00317383 21.93969727 C-25.94240128 21.94656303 -25.94240128 21.94656303 -24.86019897 21.9535675 C-19.82462949 21.88087252 -16.42240852 20.82420254 -12.0234375 18.5390625 C-9.35750504 14.76232485 -10.053847 11.09040952 -10.63671875 6.72265625 C-11.00744663 4.6293544 -11.4784498 2.5932469 -12.0234375 0.5390625 C-8.29873361 -1.32328944 -3.97778008 -0.90613523 0 0 Z " fill="#FEFEFE" transform="translate(328.0234375,271.4609375)"/>
<path d="M0 0 C6.06529898 3.82507068 9.58385715 9.0027688 11.53051758 15.87207031 C13.66798545 25.56014622 13.11994383 37.41451595 8 46 C5.875 49.125 5.875 49.125 4 51 C3.34 51 2.68 51 2 51 C2 51.66 2 52.32 2 53 C0.08588443 53.98414433 -1.8313967 54.96213349 -3.75 55.9375 C-4.81734375 56.48277344 -5.8846875 57.02804687 -6.984375 57.58984375 C-11.1740504 59.54900543 -14.46224513 60.12503916 -19.074646 60.12025452 C-20.09825729 60.12162918 -21.12186859 60.12300385 -22.17649841 60.12442017 C-23.29355667 60.12082489 -24.41061493 60.11722961 -25.56152344 60.11352539 C-27.33267265 60.11374443 -27.33267265 60.11374443 -29.13960266 60.1139679 C-32.37275108 60.11339088 -35.60585615 60.10837784 -38.83899593 60.10139394 C-42.21958668 60.09513987 -45.60017829 60.09455497 -48.98077393 60.09336853 C-55.38031421 60.09026128 -61.7798374 60.08205604 -68.17937016 60.07201904 C-75.46589991 60.06083911 -82.75243047 60.05534271 -90.03896666 60.05032361 C-105.02598729 60.03987293 -120.01299194 60.0222852 -135 60 C-135.01702051 57.90863824 -135.02919681 55.81723666 -135.03930664 53.72583008 C-135.04660294 52.56118729 -135.05389923 51.39654449 -135.06141663 50.1966095 C-134.9000269 41.79660531 -131.6777515 34.609618 -125.859375 28.6171875 C-117.63130845 21.4608439 -108.9743846 20.69636492 -98.4921875 20.62109375 C-97.2575174 20.60409927 -96.02284729 20.5871048 -94.75076294 20.56959534 C-91.45718437 20.52548063 -88.16365051 20.48923435 -84.86993408 20.45739746 C-73.91273713 20.34811044 -62.95603891 20.19210542 -52 20 C-51.34127396 19.98893471 -50.68254791 19.97786942 -50.00386047 19.96646881 C-45.46273499 19.88847547 -40.92299171 19.78058093 -36.3828125 19.66015625 C-35.20862762 19.6393248 -34.03444275 19.61849335 -32.82467651 19.59703064 C-31.73671783 19.56380203 -30.64875916 19.53057343 -29.52783203 19.49633789 C-28.10230515 19.46123863 -28.10230515 19.46123863 -26.64797974 19.4254303 C-22.86367569 18.81743562 -20.00402251 17.33869669 -17.6875 14.25 C-16.48550929 10.31621222 -16.31527988 6.54062027 -18 2.75 C-18.495 1.88375 -18.495 1.88375 -19 1 C-19 0.01 -19 -0.98 -19 -2 C-12.35257727 -4.21580758 -6.19035537 -2.90344101 0 0 Z " fill="#FEFEFE" transform="translate(335,208)"/>
<path d="M0 0 C1.16228119 -0.00043808 2.32456238 -0.00087616 3.52206421 -0.00132751 C7.32584009 0.00074593 11.12916338 0.02400905 14.93286133 0.04760742 C17.58515671 0.05320852 20.23742772 0.05762394 22.88972473 0.06047058 C29.13327005 0.06975034 35.37665552 0.09430816 41.62013084 0.12451905 C48.73510093 0.15819078 55.85007914 0.17458098 62.96510923 0.18960536 C77.58595234 0.220862 92.20667022 0.2735422 106.82739258 0.34057617 C106.87161523 2.55133059 106.9029428 4.76234501 106.92895508 6.97338867 C106.95723389 8.8202124 106.95723389 8.8202124 106.98608398 10.7043457 C106.56972473 20.24473755 102.06199804 28.30325484 95.27270508 34.83666992 C87.16916592 41.36990604 76.62212338 41.7813266 66.65478516 41.68115234 C65.49250397 41.68159042 64.33022278 41.6820285 63.13272095 41.68247986 C59.32894506 41.68040642 55.52562177 41.6571433 51.72192383 41.63354492 C49.06962845 41.62794382 46.41735744 41.6235284 43.76506042 41.62068176 C37.52151511 41.611402 31.27812963 41.58684418 25.03465432 41.55663329 C17.91968423 41.52296157 10.80470602 41.50657136 3.68967593 41.49154699 C-10.93116719 41.46029034 -25.55188506 41.40761015 -40.17260742 41.34057617 C-40.19060259 39.4184101 -40.20344686 37.49619533 -40.21411133 35.57397461 C-40.22181549 34.50354919 -40.22951965 33.43312378 -40.23745728 32.33026123 C-40.04245221 23.34020664 -36.46447142 14.73882434 -30.17260742 8.34057617 C-21.97874803 0.49670575 -10.79352781 -0.10847767 0 0 Z " fill="#FDFDFD" transform="translate(240.172607421875,161.659423828125)"/>
<path d="M0 0 C4.0285497 2.86748298 6.89109083 6.71164593 8.7890625 11.2734375 C9.73138074 18.32986713 9.07394217 24.47236964 4.7890625 30.2734375 C0.1524686 35.25301232 -4.43186291 37.34498415 -11.1484375 37.5859375 C-17.01270691 37.44672636 -20.44967473 35.78894267 -24.8984375 31.9609375 C-29.83505271 26.2237901 -30.77064939 21.62929442 -30.55859375 14.1796875 C-29.89557417 8.63714182 -27.41113815 5.1602771 -23.2734375 1.4609375 C-15.82267223 -3.86103769 -8.07811255 -4.53790386 0 0 Z " fill="#FDFDFD" transform="translate(180.2109375,164.7265625)"/>
<path d="M0 0 C5.35658545 3.17390203 9.20804885 7.281831 11.65234375 13.05078125 C12.47692337 19.22554023 12.1322374 24.87347515 8.99609375 30.328125 C5.98874131 34.18348089 2.24504226 36.51988175 -2.34765625 38.05078125 C-14.95480222 38.996772 -14.95480222 38.996772 -20.34765625 35.05078125 C-25.20926973 30.18916777 -27.63382719 26.07399461 -27.66015625 19.17578125 C-27.53558175 12.76798055 -26.23153415 9.24015286 -22.03515625 4.36328125 C-15.67554623 -1.10894132 -8.06517821 -3.26096224 0 0 Z " fill="#FDFDFD" transform="translate(177.34765625,301.94921875)"/>
<path d="M0 0 C4.57652697 3.37791276 8.46363936 7.61798684 10.625 12.9375 C11.60599159 19.58759037 11.02612792 24.79918346 7.0546875 30.28515625 C3.55532171 34.32950523 -0.50771775 37.55460206 -5.890625 38.2734375 C-13.69167299 38.38488104 -18.64484998 36.88235528 -24.75 32.0625 C-29.27057168 26.15098319 -28.9931334 19.0705632 -28.375 11.9375 C-26.45764441 6.07891349 -22.719103 2.99265538 -17.55078125 -0.18359375 C-12.15566787 -2.36294835 -5.43799717 -1.71196207 0 0 Z " fill="#FDFDFD" transform="translate(178.375,233.0625)"/>
<path d="M0 0 C1.00815765 -0.00137466 2.01631531 -0.00274933 3.05502319 -0.00416565 C4.1497847 -0.00057037 5.2445462 0.0030249 6.3724823 0.00672913 C8.11458984 0.00651009 8.11458984 0.00651009 9.89189148 0.00628662 C13.72813285 0.00698291 17.56432559 0.01476209 21.40055847 0.02259827 C24.06142255 0.02446345 26.72228394 0.02593608 29.38314819 0.02688599 C35.66932425 0.02999113 41.95548286 0.0381935 48.24165124 0.04823548 C55.40003243 0.05942199 62.55841447 0.06491346 69.71680224 0.06993091 C84.43821948 0.0803768 99.15962304 0.09796042 113.88102722 0.12025452 C113.88102722 2.76025452 113.88102722 5.40025452 113.88102722 8.12025452 C113.55102722 8.12025452 113.22102722 8.12025452 112.88102722 8.12025452 C112.38602722 5.15025452 112.38602722 5.15025452 111.88102722 2.12025452 C50.99602722 2.61525452 50.99602722 2.61525452 -11.11897278 3.12025452 C-10.78897278 2.46025452 -10.45897278 1.80025452 -10.11897278 1.12025452 C-6.72545149 0.18585745 -3.50571225 -0.00370191 0 0 Z " fill="#EEEFEF" transform="translate(233.1189727783203,161.87974548339844)"/>
<path d="M0 0 C0.66 0.33 1.32 0.66 2 1 C-1.63 4.3 -5.26 7.6 -9 11 C-9.33 10.34 -9.66 9.68 -10 9 C-6.99482576 5.13620455 -4.54918935 2.09016808 0 0 Z " fill="#F5F5F5" transform="translate(216,166)"/>
<path d="" fill="#000000" transform="translate(0,0)"/>
<path d="" fill="#000000" transform="translate(0,0)"/>
<path d="" fill="#000000" transform="translate(0,0)"/>
<path d="" fill="#000000" transform="translate(0,0)"/>
<path d="" fill="#000000" transform="translate(0,0)"/>
<path d="" fill="#000000" transform="translate(0,0)"/>
<path d="" fill="#000000" transform="translate(0,0)"/>
<path d="" fill="#000000" transform="translate(0,0)"/>
<path d="" fill="#000000" transform="translate(0,0)"/>
<path d="" fill="#000000" transform="translate(0,0)"/>
<path d="" fill="#000000" transform="translate(0,0)"/>
<path d="" fill="#000000" transform="translate(0,0)"/>
<path d="" fill="#000000" transform="translate(0,0)"/>
<path d="" fill="#000000" transform="translate(0,0)"/>
<path d="" fill="#000000" transform="translate(0,0)"/>
<path d="" fill="#000000" transform="translate(0,0)"/>
<path d="" fill="#000000" transform="translate(0,0)"/>
<path d="" fill="#000000" transform="translate(0,0)"/>
<path d="" fill="#000000" transform="translate(0,0)"/>
<path d="" fill="#000000" transform="translate(0,0)"/>
<path d="" fill="#000000" transform="translate(0,0)"/>
<path d="" fill="#000000" transform="translate(0,0)"/>
<path d="" fill="#000000" transform="translate(0,0)"/>
<path d="" fill="#000000" transform="translate(0,0)"/>
<path d="" fill="#000000" transform="translate(0,0)"/>
<path d="" fill="#000000" transform="translate(0,0)"/>
<path d="" fill="#000000" transform="translate(0,0)"/>
<path d="" fill="#000000" transform="translate(0,0)"/>
<path d="" fill="#000000" transform="translate(0,0)"/>
<path d="" fill="#000000" transform="translate(0,0)"/>
<path d="" fill="#000000" transform="translate(0,0)"/>
<path d="" fill="#000000" transform="translate(0,0)"/>
<path d="" fill="#000000" transform="translate(0,0)"/>
<path d="" fill="#000000" transform="translate(0,0)"/>
<path d="" fill="#000000" transform="translate(0,0)"/>
<path d="" fill="#000000" transform="translate(0,0)"/>
<path d="" fill="#000000" transform="translate(0,0)"/>
<path d="" fill="#000000" transform="translate(0,0)"/>
<path d="" fill="#000000" transform="translate(0,0)"/>
<path d="" fill="#000000" transform="translate(0,0)"/>
<path d="" fill="#000000" transform="translate(0,0)"/>
<path d="" fill="#000000" transform="translate(0,0)"/>
<path d="" fill="#000000" transform="translate(0,0)"/>
<path d="" fill="#000000" transform="translate(0,0)"/>
<path d="" fill="#000000" transform="translate(0,0)"/>
<path d="" fill="#000000" transform="translate(0,0)"/>
<path d="" fill="#000000" transform="translate(0,0)"/>
<path d="" fill="#000000" transform="translate(0,0)"/>
<path d="" fill="#000000" transform="translate(0,0)"/>
<path d="" fill="#000000" transform="translate(0,0)"/>
<path d="" fill="#000000" transform="translate(0,0)"/>
<path d="" fill="#000000" transform="translate(0,0)"/>
<path d="" fill="#000000" transform="translate(0,0)"/>
<path d="" fill="#000000" transform="translate(0,0)"/>
<path d="" fill="#000000" transform="translate(0,0)"/>
<path d="" fill="#000000" transform="translate(0,0)"/>
<path d="" fill="#000000" transform="translate(0,0)"/>
<path d="" fill="#000000" transform="translate(0,0)"/>
<path d="" fill="#000000" transform="translate(0,0)"/>
<path d="" fill="#000000" transform="translate(0,0)"/>
<path d="" fill="#000000" transform="translate(0,0)"/>
<path d="" fill="#000000" transform="translate(0,0)"/>
<path d="" fill="#000000" transform="translate(0,0)"/>
<path d="" fill="#000000" transform="translate(0,0)"/>
<path d="" fill="#000000" transform="translate(0,0)"/>
<path d="" fill="#000000" transform="translate(0,0)"/>
<path d="" fill="#000000" transform="translate(0,0)"/>
<path d="" fill="#000000" transform="translate(0,0)"/>
<path d="" fill="#000000" transform="translate(0,0)"/>
<path d="" fill="#000000" transform="translate(0,0)"/>
<path d="" fill="#000000" transform="translate(0,0)"/>
<path d="" fill="#000000" transform="translate(0,0)"/>
<path d="" fill="#000000" transform="translate(0,0)"/>
<path d="" fill="#000000" transform="translate(0,0)"/>
<path d="" fill="#000000" transform="translate(0,0)"/>
<path d="" fill="#000000" transform="translate(0,0)"/>
<path d="" fill="#000000" transform="translate(0,0)"/>
<path d="" fill="#000000" transform="translate(0,0)"/>
</svg>
